<svg width="71" height="71" viewBox="0 0 71 71" fill="none" xmlns="http://www.w3.org/2000/svg">
<path d="M29.6108 23.1667H32.8483C33.2572 23.1667 33.6493 23.0043 33.9385 22.7152C34.2276 22.426 34.39 22.0339 34.39 21.625C34.39 21.2162 34.2276 20.824 33.9385 20.5349C33.6493 20.2458 33.2572 20.0834 32.8483 20.0834H29.6108C29.202 20.0834 28.8098 20.2458 28.5207 20.5349C28.2316 20.824 28.0692 21.2162 28.0692 21.625C28.0692 22.0339 28.2316 22.426 28.5207 22.7152C28.8098 23.0043 29.202 23.1667 29.6108 23.1667ZM21.625 34.39C22.0339 34.39 22.426 34.2276 22.7151 33.9385C23.0042 33.6494 23.1667 33.2572 23.1667 32.8484V29.6109C23.1667 29.202 23.0042 28.8099 22.7151 28.5208C22.426 28.2316 22.0339 28.0692 21.625 28.0692C21.2161 28.0692 20.824 28.2316 20.5349 28.5208C20.2458 28.8099 20.0833 29.202 20.0833 29.6109V32.8484C20.0833 33.2572 20.2458 33.6494 20.5349 33.9385C20.824 34.2276 21.2161 34.39 21.625 34.39ZM39.2925 23.1667C39.2925 23.5756 39.4549 23.9677 39.744 24.2568C40.0332 24.5459 40.4253 24.7084 40.8342 24.7084C41.243 24.7084 41.6352 24.5459 41.9243 24.2568C42.2134 23.9677 42.3758 23.5756 42.3758 23.1667V21.625C42.3758 21.2162 42.2134 20.824 41.9243 20.5349C41.6352 20.2458 41.243 20.0834 40.8342 20.0834H39.2925C38.8836 20.0834 38.4915 20.2458 38.2024 20.5349C37.9133 20.824 37.7508 21.2162 37.7508 21.625C37.7508 22.0339 37.9133 22.426 38.2024 22.7152C38.4915 23.0043 38.8836 23.1667 39.2925 23.1667ZM49.375 28.6242H42.3758C42.3758 28.2153 42.2134 27.8232 41.9243 27.5341C41.6352 27.245 41.243 27.0825 40.8342 27.0825C40.4253 27.0825 40.0332 27.245 39.744 27.5341C39.4549 27.8232 39.2925 28.2153 39.2925 28.6242H30.1658C29.757 28.6242 29.3648 28.7866 29.0757 29.0758C28.7866 29.3649 28.6242 29.757 28.6242 30.1659V39.2925C28.2153 39.2925 27.8232 39.455 27.534 39.7441C27.2449 40.0332 27.0825 40.4253 27.0825 40.8342C27.0825 41.2431 27.2449 41.6352 27.534 41.9243C27.8232 42.2134 28.2153 42.3759 28.6242 42.3759V49.375C28.6242 49.7839 28.7866 50.176 29.0757 50.4652C29.3648 50.7543 29.757 50.9167 30.1658 50.9167H49.375C49.7839 50.9167 50.176 50.7543 50.4651 50.4652C50.7542 50.176 50.9167 49.7839 50.9167 49.375V30.1659C50.9167 29.757 50.7542 29.3649 50.4651 29.0758C50.176 28.7866 49.7839 28.6242 49.375 28.6242ZM47.8333 47.8334H31.7075V40.8496V31.7075H47.8333V47.8334ZM23.1667 20.0834H21.625C21.2161 20.0834 20.824 20.2458 20.5349 20.5349C20.2458 20.824 20.0833 21.2162 20.0833 21.625V23.1667C20.0833 23.5756 20.2458 23.9677 20.5349 24.2568C20.824 24.5459 21.2161 24.7084 21.625 24.7084C22.0339 24.7084 22.426 24.5459 22.7151 24.2568C23.0042 23.9677 23.1667 23.5756 23.1667 23.1667C23.5755 23.1667 23.9677 23.0043 24.2568 22.7152C24.5459 22.426 24.7083 22.0339 24.7083 21.625C24.7083 21.2162 24.5459 20.824 24.2568 20.5349C23.9677 20.2458 23.5755 20.0834 23.1667 20.0834ZM23.1667 39.2925C23.1667 38.8837 23.0042 38.4915 22.7151 38.2024C22.426 37.9133 22.0339 37.7509 21.625 37.7509C21.2161 37.7509 20.824 37.9133 20.5349 38.2024C20.2458 38.4915 20.0833 38.8837 20.0833 39.2925V40.8342C20.0833 41.2431 20.2458 41.6352 20.5349 41.9243C20.824 42.2134 21.2161 42.3759 21.625 42.3759H23.1667C23.5755 42.3759 23.9677 42.2134 24.2568 41.9243C24.5459 41.6352 24.7083 41.2431 24.7083 40.8342C24.7083 40.4253 24.5459 40.0332 24.2568 39.7441C23.9677 39.455 23.5755 39.2925 23.1667 39.2925Z" fill="#5956E8"/>
<rect x="0.25" y="0.25" width="70.5" height="70.5" rx="9.75" stroke="#5956E8" stroke-width="0.5"/>
</svg>
