<svg width="71" height="71" viewBox="0 0 71 71" fill="none" xmlns="http://www.w3.org/2000/svg">
<path d="M49.375 45.1816V35.0683C49.792 34.8364 50.1494 34.5109 50.4192 34.1174C50.689 33.7239 50.8638 33.2731 50.9299 32.8006C50.9959 32.3281 50.9514 31.8467 50.7999 31.3943C50.6483 30.9419 50.3938 30.5309 50.0565 30.1935C49.7191 29.8561 49.3081 29.6017 48.8557 29.4501C48.4033 29.2985 47.9219 29.254 47.4494 29.3201C46.9768 29.3862 46.5261 29.561 46.1326 29.8308C45.7391 30.1006 45.4136 30.458 45.1817 30.875H40.125V25.8183C40.542 25.5864 40.8994 25.2609 41.1692 24.8674C41.439 24.4739 41.6138 24.0231 41.6799 23.5506C41.7459 23.0781 41.7014 22.5967 41.5499 22.1443C41.3983 21.6919 41.1438 21.2809 40.8065 20.9435C40.4691 20.6061 40.0581 20.3517 39.6057 20.2001C39.1533 20.0485 38.6719 20.004 38.1994 20.0701C37.7268 20.1362 37.2761 20.311 36.8826 20.5808C36.4891 20.8506 36.1636 21.208 35.9317 21.625H25.8183C25.5864 21.208 25.2609 20.8506 24.8674 20.5808C24.4739 20.311 24.0232 20.1362 23.5507 20.0701C23.0782 20.004 22.5968 20.0485 22.1444 20.2001C21.692 20.3517 21.2809 20.6061 20.9436 20.9435C20.6062 21.2809 20.3517 21.6919 20.2002 22.1443C20.0486 22.5967 20.0041 23.0781 20.0702 23.5506C20.1362 24.0231 20.311 24.4739 20.5808 24.8674C20.8506 25.2609 21.2081 25.5864 21.625 25.8183V35.9316C21.2081 36.1635 20.8506 36.4891 20.5808 36.8825C20.311 37.276 20.1362 37.7268 20.0702 38.1993C20.0041 38.6718 20.0486 39.1532 20.2002 39.6056C20.3517 40.058 20.6062 40.469 20.9436 40.8064C21.2809 41.1438 21.692 41.3983 22.1444 41.5498C22.5968 41.7014 23.0782 41.7459 23.5507 41.6798C24.0232 41.6138 24.4739 41.4389 24.8674 41.1691C25.2609 40.8993 25.5864 40.5419 25.8183 40.125H30.875V45.1816C30.4581 45.4135 30.1006 45.7391 29.8308 46.1325C29.561 46.526 29.3862 46.9768 29.3202 47.4493C29.2541 47.9218 29.2986 48.4032 29.4502 48.8556C29.6017 49.308 29.8562 49.719 30.1936 50.0564C30.5309 50.3938 30.942 50.6483 31.3944 50.7998C31.8468 50.9514 32.3282 50.9959 32.8007 50.9298C33.2732 50.8638 33.7239 50.6889 34.1174 50.4191C34.5109 50.1493 34.8364 49.7919 35.0683 49.375H45.1817C45.4136 49.7919 45.7391 50.1493 46.1326 50.4191C46.5261 50.6889 46.9768 50.8638 47.4494 50.9298C47.9219 50.9959 48.4033 50.9514 48.8557 50.7998C49.3081 50.6483 49.7191 50.3938 50.0565 50.0564C50.3938 49.719 50.6483 49.308 50.7999 48.8556C50.9514 48.4032 50.9959 47.9218 50.9299 47.4493C50.8638 46.9768 50.689 46.526 50.4192 46.1325C50.1494 45.7391 49.792 45.4135 49.375 45.1816ZM29.3333 32.4166C29.3366 32.9547 29.4806 33.4826 29.7511 33.9478C30.0215 34.4129 30.409 34.7993 30.875 35.0683V37.0416H25.8183C25.5556 36.578 25.172 36.1944 24.7083 35.9316V25.8183C25.172 25.5555 25.5556 25.1719 25.8183 24.7083H35.9317C36.1944 25.1719 36.5781 25.5555 37.0417 25.8183V30.875H35.0683C34.725 30.2962 34.2018 29.8457 33.5784 29.5921C32.9551 29.3385 32.2659 29.2958 31.6161 29.4705C30.9662 29.6452 30.3914 30.0277 29.9792 30.5596C29.567 31.0915 29.3402 31.7437 29.3333 32.4166V32.4166ZM37.0417 33.9583V35.9316C36.5781 36.1944 36.1944 36.578 35.9317 37.0416H33.9583V35.0683C34.422 34.8055 34.8056 34.4219 35.0683 33.9583H37.0417ZM46.2917 45.1816C45.8281 45.4444 45.4444 45.828 45.1817 46.2916H35.0683C34.8056 45.828 34.422 45.4444 33.9583 45.1816V40.125H35.9317C36.1636 40.5419 36.4891 40.8993 36.8826 41.1691C37.2761 41.4389 37.7268 41.6138 38.1994 41.6798C38.6719 41.7459 39.1533 41.7014 39.6057 41.5498C40.0581 41.3983 40.4691 41.1438 40.8065 40.8064C41.1438 40.469 41.3983 40.058 41.5499 39.6056C41.7014 39.1532 41.7459 38.6718 41.6799 38.1993C41.6138 37.7268 41.439 37.276 41.1692 36.8825C40.8994 36.4891 40.542 36.1635 40.125 35.9316V33.9583H45.1817C45.4444 34.4219 45.8281 34.8055 46.2917 35.0683V45.1816Z" fill="#5956E8"/>
<rect x="0.25" y="0.25" width="70.5" height="70.5" rx="9.75" stroke="#5956E8" stroke-width="0.5"/>
</svg>
