<svg width="71" height="71" viewBox="0 0 71 71" fill="none" xmlns="http://www.w3.org/2000/svg">
<rect x="0.25" y="0.25" width="70.5" height="70.5" rx="9.75" stroke="#5956E8" stroke-width="0.5"/>
<path d="M47.8333 41.9442V29.0559C48.5728 28.7982 49.2348 28.3571 49.7572 27.7737C50.2796 27.1903 50.6453 26.4839 50.82 25.7206C50.9948 24.9572 50.9729 24.162 50.7564 23.4095C50.5398 22.6569 50.1358 21.9717 49.5821 21.418C49.0283 20.8643 48.3431 20.4602 47.5906 20.2437C46.838 20.0272 46.0428 20.0052 45.2795 20.18C44.5162 20.3548 43.8097 20.7205 43.2264 21.2429C42.643 21.7653 42.2018 22.4272 41.9442 23.1667H29.0558C28.7982 22.4272 28.357 21.7653 27.7737 21.2429C27.1903 20.7205 26.4838 20.3548 25.7205 20.18C24.9572 20.0052 24.162 20.0272 23.4095 20.2437C22.6569 20.4602 21.9717 20.8643 21.418 21.418C20.8642 21.9717 20.4602 22.6569 20.2436 23.4095C20.0271 24.162 20.0052 24.9572 20.18 25.7206C20.3547 26.4839 20.7205 27.1903 21.2428 27.7737C21.7652 28.3571 22.4272 28.7982 23.1667 29.0559V41.9442C22.4272 42.2018 21.7652 42.643 21.2428 43.2264C20.7205 43.8097 20.3547 44.5162 20.18 45.2795C20.0052 46.0428 20.0271 46.838 20.2436 47.5906C20.4602 48.3431 20.8642 49.0284 21.418 49.5821C21.9717 50.1358 22.6569 50.5399 23.4095 50.7564C24.162 50.9729 24.9572 50.9948 25.7205 50.8201C26.4838 50.6453 27.1903 50.2796 27.7737 49.7572C28.357 49.2348 28.7982 48.5728 29.0558 47.8334H41.9442C42.2018 48.5728 42.643 49.2348 43.2264 49.7572C43.8097 50.2796 44.5162 50.6453 45.2795 50.8201C46.0428 50.9948 46.838 50.9729 47.5906 50.7564C48.3431 50.5399 49.0283 50.1358 49.5821 49.5821C50.1358 49.0284 50.5398 48.3431 50.7564 47.5906C50.9729 46.838 50.9948 46.0428 50.82 45.2795C50.6453 44.5162 50.2796 43.8097 49.7572 43.2264C49.2348 42.643 48.5728 42.2018 47.8333 41.9442ZM46.2917 23.1667C46.5966 23.1667 46.8947 23.2571 47.1482 23.4265C47.4017 23.5959 47.5993 23.8367 47.716 24.1184C47.8327 24.4001 47.8632 24.7101 47.8037 25.0091C47.7442 25.3082 47.5974 25.5829 47.3818 25.7985C47.1662 26.0141 46.8915 26.1609 46.5924 26.2204C46.2934 26.2799 45.9834 26.2494 45.7017 26.1327C45.42 26.016 45.1792 25.8184 45.0098 25.5649C44.8404 25.3113 44.75 25.0133 44.75 24.7084C44.75 24.2995 44.9124 23.9074 45.2015 23.6182C45.4907 23.3291 45.8828 23.1667 46.2917 23.1667ZM24.7083 23.1667C25.0133 23.1667 25.3113 23.2571 25.5648 23.4265C25.8184 23.5959 26.016 23.8367 26.1327 24.1184C26.2493 24.4001 26.2799 24.7101 26.2204 25.0091C26.1609 25.3082 26.0141 25.5829 25.7985 25.7985C25.5829 26.0141 25.3082 26.1609 25.0091 26.2204C24.7101 26.2799 24.4001 26.2494 24.1184 26.1327C23.8367 26.016 23.5959 25.8184 23.4265 25.5649C23.2571 25.3113 23.1667 25.0133 23.1667 24.7084C23.1667 24.2995 23.3291 23.9074 23.6182 23.6182C23.9073 23.3291 24.2995 23.1667 24.7083 23.1667ZM24.7083 47.8334C24.4034 47.8334 24.1054 47.743 23.8518 47.5736C23.5983 47.4042 23.4007 47.1634 23.284 46.8817C23.1673 46.6 23.1368 46.29 23.1963 45.9909C23.2558 45.6919 23.4026 45.4172 23.6182 45.2016C23.8338 44.986 24.1085 44.8391 24.4076 44.7797C24.7066 44.7202 25.0166 44.7507 25.2983 44.8674C25.58 44.9841 25.8208 45.1817 25.9902 45.4352C26.1596 45.6887 26.25 45.9868 26.25 46.2917C26.25 46.7006 26.0876 47.0927 25.7985 47.3818C25.5093 47.6709 25.1172 47.8334 24.7083 47.8334ZM41.9442 44.75H29.0558C28.8256 44.1035 28.4544 43.5162 27.9691 43.0309C27.4838 42.5456 26.8966 42.1744 26.25 41.9442V29.0559C26.8966 28.8257 27.4838 28.4545 27.9691 27.9692C28.4544 27.4838 28.8256 26.8966 29.0558 26.25H41.9442C42.1744 26.8966 42.5456 27.4838 43.0309 27.9692C43.5162 28.4545 44.1034 28.8257 44.75 29.0559V41.9442C44.1034 42.1744 43.5162 42.5456 43.0309 43.0309C42.5456 43.5162 42.1744 44.1035 41.9442 44.75ZM46.2917 47.8334C45.9868 47.8334 45.6887 47.743 45.4352 47.5736C45.1816 47.4042 44.984 47.1634 44.8674 46.8817C44.7507 46.6 44.7201 46.29 44.7796 45.9909C44.8391 45.6919 44.9859 45.4172 45.2015 45.2016C45.4172 44.986 45.6919 44.8391 45.9909 44.7797C46.29 44.7202 46.5999 44.7507 46.8816 44.8674C47.1633 44.9841 47.4041 45.1817 47.5735 45.4352C47.7429 45.6887 47.8333 45.9868 47.8333 46.2917C47.8333 46.7006 47.6709 47.0927 47.3818 47.3818C47.0927 47.6709 46.7005 47.8334 46.2917 47.8334Z" fill="#5956E8"/>
</svg>
