<svg width="71" height="71" viewBox="0 0 71 71" fill="none" xmlns="http://www.w3.org/2000/svg">
<path d="M41.3333 32.4166H38.1667V29.3333C38.1667 28.9244 37.9998 28.5323 37.7029 28.2432C37.406 27.954 37.0033 27.7916 36.5833 27.7916H28.6667C28.2467 27.7916 27.844 27.954 27.5471 28.2432C27.2501 28.5323 27.0833 28.9244 27.0833 29.3333V37.0416C27.0833 37.4505 27.2501 37.8426 27.5471 38.1317C27.844 38.4209 28.2467 38.5833 28.6667 38.5833H31.8333V41.6666C31.8333 42.0755 32.0001 42.4676 32.2971 42.7567C32.594 43.0459 32.9967 43.2083 33.4167 43.2083H41.3333C41.7533 43.2083 42.156 43.0459 42.4529 42.7567C42.7498 42.4676 42.9167 42.0755 42.9167 41.6666V33.9583C42.9167 33.5494 42.7498 33.1573 42.4529 32.8682C42.156 32.579 41.7533 32.4166 41.3333 32.4166ZM31.8333 33.9583V35.5H30.25V30.875H35V32.4166H33.4167C32.9967 32.4166 32.594 32.579 32.2971 32.8682C32.0001 33.1573 31.8333 33.5494 31.8333 33.9583ZM39.75 40.125H35V35.5H39.75V40.125ZM49.25 45.1816V25.8183C49.6782 25.5864 50.0453 25.2609 50.3224 24.8674C50.5995 24.4739 50.779 24.0231 50.8469 23.5506C50.9147 23.0781 50.869 22.5967 50.7134 22.1443C50.5577 21.6919 50.2964 21.2809 49.9499 20.9435C49.6034 20.6061 49.1812 20.3517 48.7166 20.2001C48.252 20.0485 47.7576 20.004 47.2723 20.0701C46.787 20.1362 46.3241 20.311 45.92 20.5808C45.5158 20.8506 45.1815 21.208 44.9433 21.625H25.0567C24.8185 21.208 24.4842 20.8506 24.08 20.5808C23.6759 20.311 23.213 20.1362 22.7277 20.0701C22.2424 20.004 21.748 20.0485 21.2834 20.2001C20.8188 20.3517 20.3966 20.6061 20.0501 20.9435C19.7036 21.2809 19.4423 21.6919 19.2866 22.1443C19.131 22.5967 19.0853 23.0781 19.1531 23.5506C19.221 24.0231 19.4005 24.4739 19.6776 24.8674C19.9547 25.2609 20.3218 25.5864 20.75 25.8183V45.1816C20.3218 45.4135 19.9547 45.7391 19.6776 46.1325C19.4005 46.526 19.221 46.9768 19.1531 47.4493C19.0853 47.9218 19.131 48.4032 19.2866 48.8556C19.4423 49.308 19.7036 49.719 20.0501 50.0564C20.3966 50.3938 20.8188 50.6483 21.2834 50.7998C21.748 50.9514 22.2424 50.9959 22.7277 50.9298C23.213 50.8638 23.6759 50.6889 24.08 50.4191C24.4842 50.1493 24.8185 49.7919 25.0567 49.375H44.9433C45.1815 49.7919 45.5158 50.1493 45.92 50.4191C46.3241 50.6889 46.787 50.8638 47.2723 50.9298C47.7576 50.9959 48.252 50.9514 48.7166 50.7998C49.1812 50.6483 49.6034 50.3938 49.9499 50.0564C50.2964 49.719 50.5577 49.308 50.7134 48.8556C50.869 48.4032 50.9147 47.9218 50.8469 47.4493C50.779 46.9768 50.5995 46.526 50.3224 46.1325C50.0453 45.7391 49.6782 45.4135 49.25 45.1816ZM46.0833 45.1816C45.6072 45.4444 45.2132 45.828 44.9433 46.2916H25.0567C24.7868 45.828 24.3928 45.4444 23.9167 45.1816V25.8183C24.3928 25.5555 24.7868 25.1719 25.0567 24.7083H44.9433C45.2132 25.1719 45.6072 25.5555 46.0833 25.8183V45.1816Z" fill="#5956E8"/>
<rect x="0.25" y="0.25" width="70.5" height="70.5" rx="9.75" stroke="#5956E8" stroke-width="0.5"/>
</svg>
