<svg width="37" height="37" viewBox="0 0 37 37" fill="none" xmlns="http://www.w3.org/2000/svg">
<path d="M32.375 28.1816V18.0683C32.792 17.8364 33.1494 17.5109 33.4192 17.1174C33.689 16.7239 33.8638 16.2731 33.9299 15.8006C33.9959 15.3281 33.9514 14.8467 33.7999 14.3943C33.6483 13.9419 33.3938 13.5309 33.0565 13.1935C32.7191 12.8561 32.3081 12.6017 31.8557 12.4501C31.4033 12.2985 30.9219 12.254 30.4494 12.3201C29.9768 12.3862 29.5261 12.561 29.1326 12.8308C28.7391 13.1006 28.4136 13.458 28.1817 13.875H23.125V8.81829C23.542 8.58637 23.8994 8.26085 24.1692 7.86736C24.439 7.47387 24.6138 7.02313 24.6799 6.55062C24.7459 6.0781 24.7014 5.59671 24.5499 5.14431C24.3983 4.69191 24.1438 4.28086 23.8065 3.94349C23.4691 3.60613 23.0581 3.35165 22.6057 3.2001C22.1533 3.04855 21.6719 3.00404 21.1994 3.0701C20.7268 3.13615 20.2761 3.31096 19.8826 3.58076C19.4891 3.85057 19.1636 4.20801 18.9317 4.62495H8.81835C8.58643 4.20801 8.26091 3.85057 7.86742 3.58076C7.47393 3.31096 7.02319 3.13615 6.55068 3.0701C6.07816 3.00404 5.59677 3.04855 5.14437 3.2001C4.69197 3.35165 4.28092 3.60613 3.94355 3.94349C3.60619 4.28086 3.35172 4.69191 3.20016 5.14431C3.04861 5.59671 3.00411 6.0781 3.07016 6.55062C3.13621 7.02313 3.31102 7.47387 3.58082 7.86736C3.85063 8.26085 4.20807 8.58637 4.62501 8.81829V18.9316C4.20807 19.1635 3.85063 19.4891 3.58082 19.8825C3.31102 20.276 3.13621 20.7268 3.07016 21.1993C3.00411 21.6718 3.04861 22.1532 3.20016 22.6056C3.35172 23.058 3.60619 23.469 3.94355 23.8064C4.28092 24.1438 4.69197 24.3983 5.14437 24.5498C5.59677 24.7014 6.07816 24.7459 6.55068 24.6798C7.02319 24.6138 7.47393 24.4389 7.86742 24.1691C8.26091 23.8993 8.58643 23.5419 8.81835 23.125H13.875V28.1816C13.4581 28.4135 13.1006 28.7391 12.8308 29.1325C12.561 29.526 12.3862 29.9768 12.3202 30.4493C12.2541 30.9218 12.2986 31.4032 12.4502 31.8556C12.6017 32.308 12.8562 32.719 13.1936 33.0564C13.5309 33.3938 13.942 33.6483 14.3944 33.7998C14.8468 33.9514 15.3282 33.9959 15.8007 33.9298C16.2732 33.8638 16.7239 33.6889 17.1174 33.4191C17.5109 33.1493 17.8364 32.7919 18.0683 32.375H28.1817C28.4136 32.7919 28.7391 33.1493 29.1326 33.4191C29.5261 33.6889 29.9768 33.8638 30.4494 33.9298C30.9219 33.9959 31.4033 33.9514 31.8557 33.7998C32.3081 33.6483 32.7191 33.3938 33.0565 33.0564C33.3938 32.719 33.6483 32.308 33.7999 31.8556C33.9514 31.4032 33.9959 30.9218 33.9299 30.4493C33.8638 29.9768 33.689 29.526 33.4192 29.1325C33.1494 28.7391 32.792 28.4135 32.375 28.1816ZM12.3333 15.4166C12.3366 15.9547 12.4806 16.4826 12.7511 16.9478C13.0215 17.4129 13.409 17.7993 13.875 18.0683V20.0416H8.81835C8.55561 19.578 8.17197 19.1944 7.70835 18.9316V8.81829C8.17197 8.55554 8.55561 8.17191 8.81835 7.70829H18.9317C19.1944 8.17191 19.5781 8.55554 20.0417 8.81829V13.875H18.0683C17.725 13.2962 17.2018 12.8457 16.5784 12.5921C15.9551 12.3385 15.2659 12.2958 14.6161 12.4705C13.9662 12.6452 13.3914 13.0277 12.9792 13.5596C12.567 14.0915 12.3402 14.7437 12.3333 15.4166ZM20.0417 16.9583V18.9316C19.5781 19.1944 19.1944 19.578 18.9317 20.0416H16.9583V18.0683C17.422 17.8055 17.8056 17.4219 18.0683 16.9583H20.0417ZM29.2917 28.1816C28.8281 28.4444 28.4444 28.828 28.1817 29.2916H18.0683C17.8056 28.828 17.422 28.4444 16.9583 28.1816V23.125H18.9317C19.1636 23.5419 19.4891 23.8993 19.8826 24.1691C20.2761 24.4389 20.7268 24.6138 21.1994 24.6798C21.6719 24.7459 22.1533 24.7014 22.6057 24.5498C23.0581 24.3983 23.4691 24.1438 23.8065 23.8064C24.1438 23.469 24.3983 23.058 24.5499 22.6056C24.7014 22.1532 24.7459 21.6718 24.6799 21.1993C24.6138 20.7268 24.439 20.276 24.1692 19.8825C23.8994 19.4891 23.542 19.1635 23.125 18.9316V16.9583H28.1817C28.4444 17.4219 28.8281 17.8055 29.2917 18.0683V28.1816Z" fill="#5956E8"/>
</svg>
