<svg width="37" height="37" viewBox="0 0 37 37" fill="none" xmlns="http://www.w3.org/2000/svg">
<path d="M29.2917 3.08337C28.8828 3.08337 28.4907 3.2458 28.2015 3.53492C27.9124 3.82404 27.75 4.21617 27.75 4.62504V6.16671H20.0417C19.6328 6.16671 19.2407 6.32913 18.9515 6.61825C18.6624 6.90737 18.5 7.2995 18.5 7.70837V29.2917C18.5 29.7006 18.6624 30.0927 18.9515 30.3818C19.2407 30.671 19.6328 30.8334 20.0417 30.8334H27.75V32.375C27.75 32.7839 27.9124 33.176 28.2015 33.4652C28.4907 33.7543 28.8828 33.9167 29.2917 33.9167C29.7005 33.9167 30.0927 33.7543 30.3818 33.4652C30.6709 33.176 30.8333 32.7839 30.8333 32.375V4.62504C30.8333 4.21617 30.6709 3.82404 30.3818 3.53492C30.0927 3.2458 29.7005 3.08337 29.2917 3.08337ZM27.75 27.75H21.5833V9.25004H27.75V27.75ZM13.875 3.08337C13.4661 3.08337 13.074 3.2458 12.7849 3.53492C12.4958 3.82404 12.3333 4.21617 12.3333 4.62504V7.70837H7.70834C7.29946 7.70837 6.90733 7.8708 6.61822 8.15992C6.3291 8.44904 6.16667 8.84117 6.16667 9.25004V27.75C6.16667 28.1589 6.3291 28.551 6.61822 28.8402C6.90733 29.1293 7.29946 29.2917 7.70834 29.2917H12.3333V32.375C12.3333 32.7839 12.4958 33.176 12.7849 33.4652C13.074 33.7543 13.4661 33.9167 13.875 33.9167C14.2839 33.9167 14.676 33.7543 14.9651 33.4652C15.2542 33.176 15.4167 32.7839 15.4167 32.375V4.62504C15.4167 4.21617 15.2542 3.82404 14.9651 3.53492C14.676 3.2458 14.2839 3.08337 13.875 3.08337ZM12.3333 26.2084H9.25V10.7917H12.3333V26.2084Z" fill="white"/>
</svg>
