<svg width="38" height="37" viewBox="0 0 38 37" fill="none" xmlns="http://www.w3.org/2000/svg">
<path d="M25.3333 15.4166H22.1667V12.3333C22.1667 11.9244 21.9998 11.5323 21.7029 11.2432C21.406 10.954 21.0033 10.7916 20.5833 10.7916H12.6667C12.2467 10.7916 11.844 10.954 11.5471 11.2432C11.2501 11.5323 11.0833 11.9244 11.0833 12.3333V20.0416C11.0833 20.4505 11.2501 20.8426 11.5471 21.1317C11.844 21.4209 12.2467 21.5833 12.6667 21.5833H15.8333V24.6666C15.8333 25.0755 16.0001 25.4676 16.2971 25.7567C16.594 26.0459 16.9967 26.2083 17.4167 26.2083H25.3333C25.7533 26.2083 26.156 26.0459 26.4529 25.7567C26.7498 25.4676 26.9167 25.0755 26.9167 24.6666V16.9583C26.9167 16.5494 26.7498 16.1573 26.4529 15.8682C26.156 15.579 25.7533 15.4166 25.3333 15.4166ZM15.8333 16.9583V18.5H14.25V13.875H19V15.4166H17.4167C16.9967 15.4166 16.594 15.579 16.2971 15.8682C16.0001 16.1573 15.8333 16.5494 15.8333 16.9583ZM23.75 23.125H19V18.5H23.75V23.125ZM33.25 28.1816V8.81829C33.6782 8.58637 34.0453 8.26085 34.3224 7.86736C34.5995 7.47387 34.779 7.02313 34.8469 6.55062C34.9147 6.0781 34.869 5.59671 34.7134 5.14431C34.5577 4.69191 34.2964 4.28086 33.9499 3.94349C33.6034 3.60613 33.1812 3.35165 32.7166 3.2001C32.252 3.04855 31.7576 3.00404 31.2723 3.0701C30.787 3.13615 30.3241 3.31096 29.92 3.58076C29.5158 3.85057 29.1815 4.20801 28.9433 4.62495H9.05666C8.81847 4.20801 8.48416 3.85057 8.08003 3.58076C7.6759 3.31096 7.21298 3.13615 6.7277 3.0701C6.24242 3.00404 5.74801 3.04855 5.28339 3.2001C4.81876 3.35165 4.3966 3.60613 4.05011 3.94349C3.70363 4.28086 3.44228 4.69191 3.28663 5.14431C3.13098 5.59671 3.08528 6.0781 3.15312 6.55062C3.22095 7.02313 3.40049 7.47387 3.67758 7.86736C3.95468 8.26085 4.32178 8.58637 4.74999 8.81829V28.1816C4.32178 28.4135 3.95468 28.7391 3.67758 29.1325C3.40049 29.526 3.22095 29.9768 3.15312 30.4493C3.08528 30.9218 3.13098 31.4032 3.28663 31.8556C3.44228 32.308 3.70363 32.719 4.05011 33.0564C4.3966 33.3938 4.81876 33.6483 5.28339 33.7998C5.74801 33.9514 6.24242 33.9959 6.7277 33.9298C7.21298 33.8638 7.6759 33.6889 8.08003 33.4191C8.48416 33.1493 8.81847 32.7919 9.05666 32.375H28.9433C29.1815 32.7919 29.5158 33.1493 29.92 33.4191C30.3241 33.6889 30.787 33.8638 31.2723 33.9298C31.7576 33.9959 32.252 33.9514 32.7166 33.7998C33.1812 33.6483 33.6034 33.3938 33.9499 33.0564C34.2964 32.719 34.5577 32.308 34.7134 31.8556C34.869 31.4032 34.9147 30.9218 34.8469 30.4493C34.779 29.9768 34.5995 29.526 34.3224 29.1325C34.0453 28.7391 33.6782 28.4135 33.25 28.1816ZM30.0833 28.1816C29.6072 28.4444 29.2132 28.828 28.9433 29.2916H9.05666C8.78682 28.828 8.39281 28.4444 7.91666 28.1816V8.81829C8.39281 8.55554 8.78682 8.17191 9.05666 7.70829H28.9433C29.2132 8.17191 29.6072 8.55554 30.0833 8.81829V28.1816Z" fill="#5956E8"/>
</svg>
