<svg width="37" height="37" viewBox="0 0 37 37" fill="none" xmlns="http://www.w3.org/2000/svg">
<path d="M12.6108 6.16671H15.8483C16.2572 6.16671 16.6493 6.00428 16.9385 5.71516C17.2276 5.42605 17.39 5.03392 17.39 4.62504C17.39 4.21617 17.2276 3.82404 16.9385 3.53492C16.6493 3.2458 16.2572 3.08337 15.8483 3.08337H12.6108C12.202 3.08337 11.8098 3.2458 11.5207 3.53492C11.2316 3.82404 11.0692 4.21617 11.0692 4.62504C11.0692 5.03392 11.2316 5.42605 11.5207 5.71516C11.8098 6.00428 12.202 6.16671 12.6108 6.16671ZM4.62499 17.39C5.03387 17.39 5.426 17.2276 5.71512 16.9385C6.00424 16.6494 6.16666 16.2572 6.16666 15.8484V12.6109C6.16666 12.202 6.00424 11.8099 5.71512 11.5208C5.426 11.2316 5.03387 11.0692 4.62499 11.0692C4.21612 11.0692 3.82399 11.2316 3.53487 11.5208C3.24575 11.8099 3.08333 12.202 3.08333 12.6109V15.8484C3.08333 16.2572 3.24575 16.6494 3.53487 16.9385C3.82399 17.2276 4.21612 17.39 4.62499 17.39ZM22.2925 6.16671C22.2925 6.57558 22.4549 6.96771 22.744 7.25683C23.0332 7.54595 23.4253 7.70837 23.8342 7.70837C24.243 7.70837 24.6352 7.54595 24.9243 7.25683C25.2134 6.96771 25.3758 6.57558 25.3758 6.16671V4.62504C25.3758 4.21617 25.2134 3.82404 24.9243 3.53492C24.6352 3.2458 24.243 3.08337 23.8342 3.08337H22.2925C21.8836 3.08337 21.4915 3.2458 21.2024 3.53492C20.9133 3.82404 20.7508 4.21617 20.7508 4.62504C20.7508 5.03392 20.9133 5.42605 21.2024 5.71516C21.4915 6.00428 21.8836 6.16671 22.2925 6.16671ZM32.375 11.6242H25.3758C25.3758 11.2153 25.2134 10.8232 24.9243 10.5341C24.6352 10.245 24.243 10.0825 23.8342 10.0825C23.4253 10.0825 23.0332 10.245 22.744 10.5341C22.4549 10.8232 22.2925 11.2153 22.2925 11.6242H13.1658C12.757 11.6242 12.3648 11.7866 12.0757 12.0758C11.7866 12.3649 11.6242 12.757 11.6242 13.1659V22.2925C11.2153 22.2925 10.8232 22.455 10.534 22.7441C10.2449 23.0332 10.0825 23.4253 10.0825 23.8342C10.0825 24.2431 10.2449 24.6352 10.534 24.9243C10.8232 25.2134 11.2153 25.3759 11.6242 25.3759V32.375C11.6242 32.7839 11.7866 33.176 12.0757 33.4652C12.3648 33.7543 12.757 33.9167 13.1658 33.9167H32.375C32.7839 33.9167 33.176 33.7543 33.4651 33.4652C33.7542 33.176 33.9167 32.7839 33.9167 32.375V13.1659C33.9167 12.757 33.7542 12.3649 33.4651 12.0758C33.176 11.7866 32.7839 11.6242 32.375 11.6242ZM30.8333 30.8334H14.7075V23.8496V14.7075H30.8333V30.8334ZM6.16666 3.08337H4.62499C4.21612 3.08337 3.82399 3.2458 3.53487 3.53492C3.24575 3.82404 3.08333 4.21617 3.08333 4.62504V6.16671C3.08333 6.57558 3.24575 6.96771 3.53487 7.25683C3.82399 7.54595 4.21612 7.70837 4.62499 7.70837C5.03387 7.70837 5.426 7.54595 5.71512 7.25683C6.00424 6.96771 6.16666 6.57558 6.16666 6.16671C6.57554 6.16671 6.96767 6.00428 7.25678 5.71516C7.5459 5.42605 7.70833 5.03392 7.70833 4.62504C7.70833 4.21617 7.5459 3.82404 7.25678 3.53492C6.96767 3.2458 6.57554 3.08337 6.16666 3.08337ZM6.16666 22.2925C6.16666 21.8837 6.00424 21.4915 5.71512 21.2024C5.426 20.9133 5.03387 20.7509 4.62499 20.7509C4.21612 20.7509 3.82399 20.9133 3.53487 21.2024C3.24575 21.4915 3.08333 21.8837 3.08333 22.2925V23.8342C3.08333 24.2431 3.24575 24.6352 3.53487 24.9243C3.82399 25.2134 4.21612 25.3759 4.62499 25.3759H6.16666C6.57554 25.3759 6.96767 25.2134 7.25678 24.9243C7.5459 24.6352 7.70833 24.2431 7.70833 23.8342C7.70833 23.4253 7.5459 23.0332 7.25678 22.7441C6.96767 22.455 6.57554 22.2925 6.16666 22.2925Z" fill="#5956E8"/>
</svg>
