<svg width="37" height="37" viewBox="0 0 37 37" fill="none" xmlns="http://www.w3.org/2000/svg">
<path d="M30.8333 24.9442V12.0559C31.5728 11.7982 32.2348 11.3571 32.7572 10.7737C33.2796 10.1903 33.6453 9.48388 33.82 8.72056C33.9948 7.95723 33.9729 7.16203 33.7564 6.40949C33.5398 5.65695 33.1358 4.9717 32.5821 4.41799C32.0283 3.86427 31.3431 3.46021 30.5906 3.24368C29.838 3.02715 29.0428 3.00524 28.2795 3.18001C27.5162 3.35477 26.8097 3.72049 26.2264 4.24288C25.643 4.76527 25.2018 5.42723 24.9442 6.16671H12.0558C11.7982 5.42723 11.357 4.76527 10.7737 4.24288C10.1903 3.72049 9.48385 3.35477 8.72052 3.18001C7.9572 3.00524 7.162 3.02715 6.40946 3.24368C5.65692 3.46021 4.97167 3.86427 4.41796 4.41799C3.86424 4.9717 3.46018 5.65695 3.24365 6.40949C3.02712 7.16203 3.00521 7.95723 3.17998 8.72056C3.35474 9.48388 3.72046 10.1903 4.24285 10.7737C4.76524 11.3571 5.4272 11.7982 6.16667 12.0559V24.9442C5.4272 25.2018 4.76524 25.643 4.24285 26.2264C3.72046 26.8097 3.35474 27.5162 3.17998 28.2795C3.00521 29.0428 3.02712 29.838 3.24365 30.5906C3.46018 31.3431 3.86424 32.0284 4.41796 32.5821C4.97167 33.1358 5.65692 33.5399 6.40946 33.7564C7.162 33.9729 7.9572 33.9948 8.72052 33.8201C9.48385 33.6453 10.1903 33.2796 10.7737 32.7572C11.357 32.2348 11.7982 31.5728 12.0558 30.8334H24.9442C25.2018 31.5728 25.643 32.2348 26.2264 32.7572C26.8097 33.2796 27.5162 33.6453 28.2795 33.8201C29.0428 33.9948 29.838 33.9729 30.5906 33.7564C31.3431 33.5399 32.0283 33.1358 32.5821 32.5821C33.1358 32.0284 33.5398 31.3431 33.7564 30.5906C33.9729 29.838 33.9948 29.0428 33.82 28.2795C33.6453 27.5162 33.2796 26.8097 32.7572 26.2264C32.2348 25.643 31.5728 25.2018 30.8333 24.9442ZM29.2917 6.16671C29.5966 6.16671 29.8947 6.25712 30.1482 6.42652C30.4017 6.59592 30.5993 6.8367 30.716 7.1184C30.8327 7.4001 30.8632 7.71008 30.8037 8.00914C30.7442 8.30819 30.5974 8.58289 30.3818 8.79849C30.1662 9.0141 29.8915 9.16093 29.5924 9.22042C29.2934 9.2799 28.9834 9.24937 28.7017 9.13269C28.42 9.016 28.1792 8.8184 28.0098 8.56488C27.8404 8.31135 27.75 8.01328 27.75 7.70837C27.75 7.2995 27.9124 6.90737 28.2015 6.61825C28.4907 6.32913 28.8828 6.16671 29.2917 6.16671ZM7.70834 6.16671C8.01325 6.16671 8.31132 6.25712 8.56485 6.42652C8.81837 6.59592 9.01597 6.8367 9.13266 7.1184C9.24934 7.4001 9.27987 7.71008 9.22039 8.00914C9.1609 8.30819 9.01407 8.58289 8.79846 8.79849C8.58286 9.0141 8.30816 9.16093 8.00911 9.22042C7.71005 9.2799 7.40007 9.24937 7.11837 9.13269C6.83667 9.016 6.59589 8.8184 6.42649 8.56488C6.25709 8.31135 6.16667 8.01328 6.16667 7.70837C6.16667 7.2995 6.3291 6.90737 6.61822 6.61825C6.90734 6.32913 7.29947 6.16671 7.70834 6.16671ZM7.70834 30.8334C7.40343 30.8334 7.10536 30.743 6.85184 30.5736C6.59831 30.4042 6.40071 30.1634 6.28403 29.8817C6.16734 29.6 6.13681 29.29 6.1963 28.9909C6.25578 28.6919 6.40261 28.4172 6.61822 28.2016C6.83382 27.986 7.10852 27.8391 7.40758 27.7797C7.70663 27.7202 8.01661 27.7507 8.29831 27.8674C8.58001 27.9841 8.82079 28.1817 8.99019 28.4352C9.15959 28.6887 9.25001 28.9868 9.25001 29.2917C9.25001 29.7006 9.08758 30.0927 8.79846 30.3818C8.50935 30.6709 8.11722 30.8334 7.70834 30.8334ZM24.9442 27.75H12.0558C11.8256 27.1035 11.4544 26.5162 10.9691 26.0309C10.4838 25.5456 9.89658 25.1744 9.25001 24.9442V12.0559C9.89658 11.8257 10.4838 11.4545 10.9691 10.9692C11.4544 10.4838 11.8256 9.89661 12.0558 9.25004H24.9442C25.1744 9.89661 25.5456 10.4838 26.0309 10.9692C26.5162 11.4545 27.1034 11.8257 27.75 12.0559V24.9442C27.1034 25.1744 26.5162 25.5456 26.0309 26.0309C25.5456 26.5162 25.1744 27.1035 24.9442 27.75ZM29.2917 30.8334C28.9868 30.8334 28.6887 30.743 28.4352 30.5736C28.1816 30.4042 27.984 30.1634 27.8674 29.8817C27.7507 29.6 27.7201 29.29 27.7796 28.9909C27.8391 28.6919 27.9859 28.4172 28.2015 28.2016C28.4172 27.986 28.6919 27.8391 28.9909 27.7797C29.29 27.7202 29.5999 27.7507 29.8816 27.8674C30.1633 27.9841 30.4041 28.1817 30.5735 28.4352C30.7429 28.6887 30.8333 28.9868 30.8333 29.2917C30.8333 29.7006 30.6709 30.0927 30.3818 30.3818C30.0927 30.6709 29.7005 30.8334 29.2917 30.8334Z" fill="#5956E8"/>
</svg>
